<svg xmlns="http://www.w3.org/2000/svg" xmlns:xlink="http://www.w3.org/1999/xlink" width="500" zoomAndPan="magnify" viewBox="0 0 375 374.999991" height="500" preserveAspectRatio="xMidYMid meet" version="1.0"><defs><g/><clipPath id="a7f46a7226"><path d="M 23.324219 175.648438 L 337.5 175.648438 L 337.5 199 L 23.324219 199 Z M 23.324219 175.648438 " clip-rule="nonzero"/></clipPath></defs><g fill="#a8a29c" fill-opacity="1"><g transform="translate(116.247592, 229.301871)"><g><path d="M 49.03125 -90.453125 C 46.226562 -90.273438 44.191406 -89.921875 42.921875 -89.390625 C 41.648438 -88.867188 40.796875 -87.863281 40.359375 -86.375 C 39.921875 -84.882812 39.703125 -82.472656 39.703125 -79.140625 L 39.703125 -13.9375 C 39.703125 -10.601562 39.941406 -8.191406 40.421875 -6.703125 C 40.910156 -5.210938 41.765625 -4.203125 42.984375 -3.671875 C 44.210938 -3.148438 46.226562 -2.800781 49.03125 -2.625 L 49.03125 0 C 43.945312 -0.257812 36.628906 -0.390625 27.078125 -0.390625 C 16.472656 -0.390625 8.675781 -0.257812 3.6875 0 L 3.6875 -2.625 C 6.488281 -2.800781 8.523438 -3.148438 9.796875 -3.671875 C 11.066406 -4.203125 11.921875 -5.210938 12.359375 -6.703125 C 12.796875 -8.191406 13.015625 -10.601562 13.015625 -13.9375 L 13.015625 -79.140625 C 13.015625 -82.472656 12.769531 -84.882812 12.28125 -86.375 C 11.800781 -87.863281 10.945312 -88.867188 9.71875 -89.390625 C 8.5 -89.921875 6.488281 -90.273438 3.6875 -90.453125 L 3.6875 -93.078125 C 8.675781 -92.816406 16.472656 -92.6875 27.078125 -92.6875 C 36.546875 -92.6875 43.863281 -92.816406 49.03125 -93.078125 Z M 49.03125 -90.453125 "/></g></g></g><g fill="#846d62" fill-opacity="1"><g transform="translate(30.347127, 229.685148)"><g><path d="M 82.5625 -92.6875 C 86.675781 -92.6875 90.050781 -92.816406 92.6875 -93.078125 L 92.6875 -90.453125 C 90.40625 -89.304688 88.101562 -87.242188 85.78125 -84.265625 C 83.457031 -81.285156 81.375 -77.210938 79.53125 -72.046875 L 53.90625 0 C 51.09375 -0.175781 48.769531 -0.265625 46.9375 -0.265625 C 45.1875 -0.265625 42.90625 -0.175781 40.09375 0 L 5.65625 -82.03125 C 4.507812 -84.84375 3.257812 -86.925781 1.90625 -88.28125 C 0.550781 -89.632812 -0.785156 -90.359375 -2.109375 -90.453125 L -2.109375 -93.078125 C 4.203125 -92.816406 12.179688 -92.6875 21.828125 -92.6875 C 31.816406 -92.6875 39.175781 -92.816406 43.90625 -93.078125 L 43.90625 -90.453125 C 40.582031 -90.273438 38.21875 -89.878906 36.8125 -89.265625 C 35.40625 -88.648438 34.703125 -87.425781 34.703125 -85.59375 C 34.703125 -84.09375 35.226562 -82.03125 36.28125 -79.40625 L 59.03125 -23.40625 L 71.78125 -59.15625 C 74.675781 -67.21875 76.125 -73.707031 76.125 -78.625 C 76.125 -86.25 72.53125 -90.191406 65.34375 -90.453125 L 65.34375 -93.078125 C 71.914062 -92.816406 77.65625 -92.6875 82.5625 -92.6875 Z M 82.5625 -92.6875 "/></g></g></g><g fill="#846d62" fill-opacity="1"><g transform="translate(158.746059, 229.412694)"><g><path d="M 47.453125 -93.078125 C 65.597656 -93.078125 79.179688 -89.195312 88.203125 -81.4375 C 97.234375 -73.6875 101.75 -62.40625 101.75 -47.59375 C 101.75 -38.039062 99.535156 -29.691406 95.109375 -22.546875 C 90.691406 -15.398438 84.316406 -9.851562 75.984375 -5.90625 C 67.660156 -1.96875 57.757812 0 46.28125 0 L 38.125 -0.125 C 32.863281 -0.300781 29.007812 -0.390625 26.5625 -0.390625 C 16.300781 -0.390625 8.675781 -0.257812 3.6875 0 L 3.6875 -2.625 C 6.488281 -2.800781 8.523438 -3.148438 9.796875 -3.671875 C 11.066406 -4.203125 11.921875 -5.210938 12.359375 -6.703125 C 12.796875 -8.191406 13.015625 -10.601562 13.015625 -13.9375 L 13.015625 -79.140625 C 13.015625 -82.472656 12.769531 -84.882812 12.28125 -86.375 C 11.800781 -87.863281 10.945312 -88.867188 9.71875 -89.390625 C 8.5 -89.921875 6.488281 -90.273438 3.6875 -90.453125 L 3.6875 -93.078125 C 7.71875 -92.816406 13.675781 -92.6875 21.5625 -92.6875 L 26.296875 -92.6875 L 32.078125 -92.8125 C 39.441406 -92.988281 44.566406 -93.078125 47.453125 -93.078125 Z M 49.4375 -90.71875 C 46.71875 -90.71875 44.675781 -90.410156 43.3125 -89.796875 C 41.957031 -89.179688 41.015625 -88.082031 40.484375 -86.5 C 39.960938 -84.925781 39.703125 -82.5625 39.703125 -79.40625 L 39.703125 -13.671875 C 39.703125 -10.515625 39.960938 -8.144531 40.484375 -6.5625 C 41.015625 -4.988281 41.957031 -3.894531 43.3125 -3.28125 C 44.675781 -2.664062 46.757812 -2.359375 49.5625 -2.359375 C 58.238281 -2.359375 64.503906 -6.101562 68.359375 -13.59375 C 72.210938 -21.09375 74.140625 -32.25 74.140625 -47.0625 C 74.140625 -61.875 72.144531 -72.851562 68.15625 -80 C 64.175781 -87.144531 57.9375 -90.71875 49.4375 -90.71875 Z M 49.4375 -90.71875 "/></g></g></g><g fill="#a8a29c" fill-opacity="1"><g transform="translate(242.769029, 229.301871)"><g><path d="M 84.140625 -11.046875 C 85.273438 -8.242188 86.519531 -6.160156 87.875 -4.796875 C 89.238281 -3.441406 90.578125 -2.71875 91.890625 -2.625 L 91.890625 0 C 85.585938 -0.257812 77.613281 -0.390625 67.96875 -0.390625 C 57.976562 -0.390625 50.613281 -0.257812 45.875 0 L 45.875 -2.625 C 49.207031 -2.800781 51.570312 -3.21875 52.96875 -3.875 C 54.375 -4.53125 55.078125 -5.691406 55.078125 -7.359375 C 55.078125 -8.941406 54.550781 -11.046875 53.5 -13.671875 L 45.75 -35.234375 L 19.1875 -35.234375 L 16.953125 -29.3125 C 14.066406 -21.863281 12.625 -16.171875 12.625 -12.234375 C 12.625 -8.640625 13.628906 -6.179688 15.640625 -4.859375 C 17.660156 -3.546875 20.640625 -2.800781 24.578125 -2.625 L 24.578125 0 C 18.003906 -0.257812 12.265625 -0.390625 7.359375 -0.390625 C 3.242188 -0.390625 -0.128906 -0.257812 -2.765625 0 L -2.765625 -2.625 C -0.566406 -2.976562 1.492188 -4.335938 3.421875 -6.703125 C 5.347656 -9.066406 7.316406 -12.835938 9.328125 -18.015625 L 38.515625 -93.078125 C 41.328125 -92.898438 43.648438 -92.8125 45.484375 -92.8125 C 47.242188 -92.8125 49.523438 -92.898438 52.328125 -93.078125 Z M 44.828125 -37.859375 L 32.875 -70.734375 L 20.25 -37.859375 Z M 44.828125 -37.859375 "/></g></g></g><g clip-path="url(#a7f46a7226)"><path fill="#fdf7f2" d="M 23.324219 175.648438 L 337.972656 175.648438 L 337.972656 198.5 L 23.324219 198.5 Z M 23.324219 175.648438 " fill-opacity="1" fill-rule="nonzero"/></g><g fill="#846d62" fill-opacity="1"><g transform="translate(106.959783, 192.749987)"><g><path d="M 10.53125 -5.453125 C 10.53125 -4.304688 10.320312 -3.3125 9.90625 -2.46875 C 9.488281 -1.632812 8.914062 -0.988281 8.1875 -0.53125 C 7.46875 -0.0703125 6.640625 0.15625 5.703125 0.15625 C 4.773438 0.15625 3.945312 -0.0703125 3.21875 -0.53125 C 2.5 -0.988281 1.929688 -1.632812 1.515625 -2.46875 C 1.097656 -3.3125 0.890625 -4.304688 0.890625 -5.453125 C 0.890625 -6.609375 1.097656 -7.601562 1.515625 -8.4375 C 1.929688 -9.269531 2.5 -9.914062 3.21875 -10.375 C 3.945312 -10.832031 4.773438 -11.0625 5.703125 -11.0625 C 6.640625 -11.0625 7.46875 -10.832031 8.1875 -10.375 C 8.914062 -9.914062 9.488281 -9.269531 9.90625 -8.4375 C 10.320312 -7.601562 10.53125 -6.609375 10.53125 -5.453125 Z M 9.25 -5.453125 C 9.25 -6.398438 9.085938 -7.195312 8.765625 -7.84375 C 8.453125 -8.5 8.03125 -8.992188 7.5 -9.328125 C 6.96875 -9.660156 6.367188 -9.828125 5.703125 -9.828125 C 5.046875 -9.828125 4.445312 -9.660156 3.90625 -9.328125 C 3.375 -8.992188 2.953125 -8.5 2.640625 -7.84375 C 2.328125 -7.195312 2.171875 -6.398438 2.171875 -5.453125 C 2.171875 -4.503906 2.328125 -3.707031 2.640625 -3.0625 C 2.953125 -2.414062 3.375 -1.925781 3.90625 -1.59375 C 4.445312 -1.257812 5.046875 -1.09375 5.703125 -1.09375 C 6.367188 -1.09375 6.96875 -1.257812 7.5 -1.59375 C 8.03125 -1.925781 8.453125 -2.414062 8.765625 -3.0625 C 9.085938 -3.707031 9.25 -4.503906 9.25 -5.453125 Z M 9.25 -5.453125 "/></g></g></g><g fill="#846d62" fill-opacity="1"><g transform="translate(121.440207, 192.749987)"><g/></g></g><g fill="#846d62" fill-opacity="1"><g transform="translate(128.718945, 192.749987)"><g><path d="M 10.53125 -5.453125 C 10.53125 -4.429688 10.363281 -3.53125 10.03125 -2.75 C 9.695312 -1.96875 9.238281 -1.34375 8.65625 -0.875 L 10.078125 1.015625 L 8.625 1.015625 L 7.671875 -0.25 C 7.066406 0.0195312 6.410156 0.15625 5.703125 0.15625 C 4.773438 0.15625 3.945312 -0.0703125 3.21875 -0.53125 C 2.5 -0.988281 1.929688 -1.632812 1.515625 -2.46875 C 1.097656 -3.3125 0.890625 -4.304688 0.890625 -5.453125 C 0.890625 -6.609375 1.097656 -7.601562 1.515625 -8.4375 C 1.929688 -9.269531 2.5 -9.914062 3.21875 -10.375 C 3.945312 -10.832031 4.773438 -11.0625 5.703125 -11.0625 C 6.640625 -11.0625 7.46875 -10.832031 8.1875 -10.375 C 8.914062 -9.914062 9.488281 -9.269531 9.90625 -8.4375 C 10.320312 -7.601562 10.53125 -6.609375 10.53125 -5.453125 Z M 5.28125 -3.40625 L 6.734375 -3.40625 L 7.890625 -1.875 C 8.304688 -2.238281 8.632812 -2.71875 8.875 -3.3125 C 9.125 -3.914062 9.25 -4.628906 9.25 -5.453125 C 9.25 -6.398438 9.085938 -7.195312 8.765625 -7.84375 C 8.453125 -8.5 8.03125 -8.992188 7.5 -9.328125 C 6.96875 -9.660156 6.367188 -9.828125 5.703125 -9.828125 C 5.046875 -9.828125 4.445312 -9.660156 3.90625 -9.328125 C 3.375 -8.992188 2.953125 -8.5 2.640625 -7.84375 C 2.328125 -7.195312 2.171875 -6.398438 2.171875 -5.453125 C 2.171875 -4.503906 2.328125 -3.707031 2.640625 -3.0625 C 2.953125 -2.414062 3.375 -1.925781 3.90625 -1.59375 C 4.445312 -1.257812 5.046875 -1.09375 5.703125 -1.09375 C 6.128906 -1.09375 6.53125 -1.160156 6.90625 -1.296875 Z M 5.28125 -3.40625 "/></g></g></g><g fill="#846d62" fill-opacity="1"><g transform="translate(143.199368, 192.749987)"><g><path d="M 8.484375 -10.90625 L 9.796875 -10.90625 L 9.796875 -3.6875 C 9.796875 -2.875 9.601562 -2.175781 9.21875 -1.59375 C 8.832031 -1.007812 8.316406 -0.566406 7.671875 -0.265625 C 7.035156 0.0351562 6.332031 0.1875 5.5625 0.1875 C 4.789062 0.1875 4.082031 0.0351562 3.4375 -0.265625 C 2.800781 -0.566406 2.289062 -1.007812 1.90625 -1.59375 C 1.519531 -2.175781 1.328125 -2.875 1.328125 -3.6875 L 1.328125 -10.90625 L 2.640625 -10.90625 L 2.640625 -3.6875 C 2.640625 -3.113281 2.773438 -2.628906 3.046875 -2.234375 C 3.316406 -1.847656 3.671875 -1.550781 4.109375 -1.34375 C 4.554688 -1.144531 5.039062 -1.046875 5.5625 -1.046875 C 6.082031 -1.046875 6.5625 -1.144531 7 -1.34375 C 7.445312 -1.550781 7.804688 -1.847656 8.078125 -2.234375 C 8.347656 -2.628906 8.484375 -3.113281 8.484375 -3.6875 Z M 8.484375 -10.90625 "/></g></g></g><g fill="#846d62" fill-opacity="1"><g transform="translate(157.381492, 192.749987)"><g><path d="M 1.328125 0 L 1.328125 -10.90625 L 7.90625 -10.90625 L 7.90625 -9.734375 L 2.640625 -9.734375 L 2.640625 -6.046875 L 7.5625 -6.046875 L 7.5625 -4.875 L 2.640625 -4.875 L 2.640625 -1.171875 L 7.984375 -1.171875 L 7.984375 0 Z M 1.328125 0 "/></g></g></g><g fill="#846d62" fill-opacity="1"><g transform="translate(169.411635, 192.749987)"><g/></g></g><g fill="#846d62" fill-opacity="1"><g transform="translate(176.690375, 192.749987)"><g><path d="M 1.328125 0 L 1.328125 -10.90625 L 7.90625 -10.90625 L 7.90625 -9.734375 L 2.640625 -9.734375 L 2.640625 -6.046875 L 7.5625 -6.046875 L 7.5625 -4.875 L 2.640625 -4.875 L 2.640625 -1.171875 L 7.984375 -1.171875 L 7.984375 0 Z M 1.328125 0 "/></g></g></g><g fill="#846d62" fill-opacity="1"><g transform="translate(188.720518, 192.749987)"><g><path d="M 8.484375 -10.90625 L 9.796875 -10.90625 L 9.796875 -3.6875 C 9.796875 -2.875 9.601562 -2.175781 9.21875 -1.59375 C 8.832031 -1.007812 8.316406 -0.566406 7.671875 -0.265625 C 7.035156 0.0351562 6.332031 0.1875 5.5625 0.1875 C 4.789062 0.1875 4.082031 0.0351562 3.4375 -0.265625 C 2.800781 -0.566406 2.289062 -1.007812 1.90625 -1.59375 C 1.519531 -2.175781 1.328125 -2.875 1.328125 -3.6875 L 1.328125 -10.90625 L 2.640625 -10.90625 L 2.640625 -3.6875 C 2.640625 -3.113281 2.773438 -2.628906 3.046875 -2.234375 C 3.316406 -1.847656 3.671875 -1.550781 4.109375 -1.34375 C 4.554688 -1.144531 5.039062 -1.046875 5.5625 -1.046875 C 6.082031 -1.046875 6.5625 -1.144531 7 -1.34375 C 7.445312 -1.550781 7.804688 -1.847656 8.078125 -2.234375 C 8.347656 -2.628906 8.484375 -3.113281 8.484375 -3.6875 Z M 8.484375 -10.90625 "/></g></g></g><g fill="#846d62" fill-opacity="1"><g transform="translate(202.902642, 192.749987)"><g/></g></g><g fill="#846d62" fill-opacity="1"><g transform="translate(210.181376, 192.749987)"><g><path d="M 1.765625 -10.90625 L 5 -1.71875 L 5.140625 -1.71875 L 8.375 -10.90625 L 9.765625 -10.90625 L 5.75 0 L 4.390625 0 L 0.390625 -10.90625 Z M 1.765625 -10.90625 "/></g></g></g><g fill="#846d62" fill-opacity="1"><g transform="translate(223.383394, 192.749987)"><g><path d="M 2.640625 -10.90625 L 2.640625 0 L 1.328125 0 L 1.328125 -10.90625 Z M 2.640625 -10.90625 "/></g></g></g><g fill="#846d62" fill-opacity="1"><g transform="translate(230.406449, 192.749987)"><g/></g></g><g fill="#846d62" fill-opacity="1"><g transform="translate(237.685189, 192.749987)"><g><path d="M 4.6875 0 L 1.328125 0 L 1.328125 -10.90625 L 4.84375 -10.90625 C 5.894531 -10.90625 6.796875 -10.6875 7.546875 -10.25 C 8.304688 -9.820312 8.882812 -9.203125 9.28125 -8.390625 C 9.6875 -7.578125 9.890625 -6.601562 9.890625 -5.46875 C 9.890625 -4.332031 9.6875 -3.351562 9.28125 -2.53125 C 8.875 -1.71875 8.28125 -1.09375 7.5 -0.65625 C 6.726562 -0.21875 5.789062 0 4.6875 0 Z M 2.640625 -1.171875 L 4.609375 -1.171875 C 5.953125 -1.171875 6.953125 -1.554688 7.609375 -2.328125 C 8.273438 -3.097656 8.609375 -4.144531 8.609375 -5.46875 C 8.609375 -6.789062 8.285156 -7.832031 7.640625 -8.59375 C 6.992188 -9.351562 6.03125 -9.734375 4.75 -9.734375 L 2.640625 -9.734375 Z M 2.640625 -1.171875 "/></g></g></g><g fill="#846d62" fill-opacity="1"><g transform="translate(251.526405, 192.749987)"><g><path d="M 1.765625 0 L 0.390625 0 L 4.390625 -10.90625 L 5.75 -10.90625 L 9.765625 0 L 8.375 0 L 7.28125 -3.09375 L 2.859375 -3.09375 Z M 3.28125 -4.265625 L 6.859375 -4.265625 L 5.109375 -9.1875 L 5.03125 -9.1875 Z M 3.28125 -4.265625 "/></g></g></g></svg>